<?xml version="1.0" encoding="UTF-8"?> <svg xmlns="http://www.w3.org/2000/svg" width="200" height="200" viewBox="0 0 200 200" fill="none"><rect width="200" height="200" fill="#0F1225"></rect><path d="M159.036 46.121C162.31 54.4554 163.994 63.3373 164 72.3008C164 80.1125 162.72 87.272 160.16 93.765C155.98 104.592 148.946 114.064 139.815 121.156C130.49 128.551 119.256 133.095 107.445 134.249V149.923C107.445 150.532 106.969 152.969 106.009 157.233C103.88 166.75 102.113 176.346 100.711 186C95.3778 163.468 92.4338 151.5 91.9004 150.073V134.092C80.2596 132.981 69.7422 128.717 60.3413 121.314C44.1138 108.528 36 92.1883 36 72.3008C36 63.9875 37.4436 55.8677 40.3236 47.9557C42.9906 40.4512 47.1311 33.5655 52.4978 27.7098C58.3716 21.1165 64.9991 16.5513 72.3662 14.0072C64.8427 18.1372 58.2439 23.7848 52.9813 30.598C46.0409 39.7283 42.5707 50.1343 42.5707 61.8017C42.5707 66.0658 42.9973 70.2727 43.8507 74.4365C45.664 83.1583 50.1013 91.2782 57.1484 98.7817C64.4089 106.593 72.4729 111.517 81.3404 113.545C85.9271 115.072 89.4471 115.888 91.9076 115.982V100.143C91.9076 98.5308 91.8578 96.7033 91.7511 94.668C91.0044 91.3212 88.9778 89.3933 85.664 88.8845C85.4483 88.6822 85.162 88.574 84.8676 88.5835H113.86C114.606 88.5835 114.926 88.6838 114.82 88.8845C110.866 89.4937 108.569 91.4215 107.929 94.668C107.587 96.5254 107.428 98.4121 107.452 100.301V115.982C111.205 115.238 114.943 114.425 118.667 113.545C127.321 111.417 135.221 106.701 142.375 99.3908C152.416 89.0422 157.429 76.5148 157.429 61.7945C157.5 51.9964 154.716 42.3929 149.422 34.1742C144.082 25.8035 136.764 19.0812 127.477 14C142.105 19.289 152.622 29.996 159.036 46.121Z" fill="white"></path></svg> 