<?xml version="1.0" encoding="UTF-8"?> <svg xmlns="http://www.w3.org/2000/svg" width="200" height="200" viewBox="0 0 200 200" fill="none"><rect width="200" height="200" fill="#171717"></rect><path d="M158.688 76.6936L160.675 75.2036C160.837 75.2036 160.837 75.3666 161 75.3666C160.675 76.0359 160.332 76.6936 160.169 77.3572C160.332 77.3572 160.5 77.1942 160.837 77.0312C161 78.0207 161 78.8589 160.007 79.6854C159.013 80.5177 155.202 83.9925 154.371 84.9937L157.352 82.6713C158.514 81.6818 159.67 80.6807 160.826 79.6854V91.6348C160.826 92.1237 160.663 92.7931 160.332 93.119C140.638 112.85 119.956 133.088 100.261 152.82C99.2622 153.809 98.7684 153.984 97.7749 152.82C96.95 151.824 95.7881 150.829 94.7947 149.834C92.9763 148.507 94.4693 148.169 94.7947 147.011C94.3067 147.337 93.9697 147.506 93.6386 147.843C93.6386 147.843 92.4825 147.843 92.4825 147.68C92.9763 147.011 94.144 145.527 94.632 144.857C94.632 144.857 99.4365 138.885 99.4365 138.723C98.6057 139.386 92.3198 145.521 91.6517 146.179C91.1637 146.673 90.9894 146.848 90.4956 146.179C87.8407 143.356 86.6846 142.034 83.8728 139.374L83.5416 139.048C84.0354 137.884 83.0478 137.384 82.3797 136.895C80.8983 135.23 79.2426 133.746 77.581 132.081L77.2557 131.755C77.4184 131.587 77.4184 131.261 77.7437 130.923C77.4184 130.591 76.9129 130.254 76.5818 129.928C75.5942 128.932 75.5942 128.438 76.5818 127.442L84.2097 119.812L96.1309 107.862C97.6123 106.378 99.4365 105.045 100.93 103.555C102.916 101.565 104.741 99.411 106.727 97.4204C108.215 95.7557 109.87 94.2715 111.369 92.6068L121.466 82.4908C123.616 80.3373 125.934 78.5096 128.089 76.519C130.239 74.3655 132.069 72.0431 134.055 69.8837C135.537 68.219 137.036 66.892 138.691 65.2273C141.346 62.4102 143.99 59.5814 146.807 56.9389C149.456 54.279 152.268 51.7994 154.917 49.1395C156.399 47.8182 157.735 46.3166 159.054 44.9953C159.379 44.6694 160.216 44 160.541 44C160.704 44 160.866 45.3212 160.866 45.8276C160.866 47.8182 161.029 49.8088 160.866 51.7994C160.704 53.1207 160.866 54.4536 160.866 55.7807C160.836 56.2894 160.727 56.7903 160.541 57.2649C159.216 58.429 155.405 65.3961 160.704 61.4149C160.838 61.7855 160.893 62.1799 160.866 62.5732V73.8474C160.866 74.1792 160.704 74.6798 160.373 74.8427L157.561 77.6657C157.526 77.5202 158.519 76.6936 158.688 76.6936ZM99.2622 48.1675C97.775 49.4887 96.1192 50.9904 94.6204 52.4746C93.6328 53.307 92.802 54.4652 91.8086 55.4605C89.9844 57.2882 87.9975 58.7782 86.1733 60.6C84.5118 62.0901 83.193 63.9177 81.7058 65.4136C80.387 66.7406 78.7255 68.0735 77.4068 69.3948C64.9635 82.0257 52.4379 94.5749 39.8308 107.042C39.4996 107.373 39.4996 107.711 39.4996 108.037C39.8308 109.527 39.6681 111.023 39.6681 112.519C39.6681 112.839 39.4996 115.994 39.6681 116.331C56.3879 102.071 50.0904 108.037 40.3304 119.154C40.3304 119.317 40.1677 119.317 40.1677 119.317C39.4996 120.149 39.4996 121.971 39.4996 123.298C39.337 134.247 39.4996 143.699 39.4996 154.479C39.4996 154.973 39.337 155.311 39.9934 155.643C40.4872 155.969 40.8242 155.474 41.1553 155.148C48.9343 147.348 56.7074 139.386 64.4922 131.598C66.1537 130.108 67.6351 128.449 69.134 126.785C70.4528 125.3 71.6089 123.962 72.9392 122.641C73.433 122.146 74.1011 121.808 74.7634 121.319C78.4118 118.333 81.212 114.678 84.3608 111.197C86.185 109.207 88.3345 107.216 90.3213 105.226C91.4832 104.067 93.1389 103.072 94.295 101.914C103.561 92.7931 112.827 83.6666 121.937 74.3829C122.93 73.3876 123.924 72.3923 124.917 71.234C125.748 70.5647 125.08 70.7393 124.917 70.4017C124.754 70.0758 124.429 69.7323 124.255 69.4064C123.587 68.4111 123.261 68.2423 122.105 68.737C121.937 68.5741 121.774 68.5741 121.611 68.4111C121.125 66.5015 119.944 64.8429 118.3 63.7605C117.475 62.934 117.638 62.1017 116.482 62.2763C116.313 62.1133 116.313 61.7816 116.15 61.607C115.988 61.444 115.662 61.607 115.488 61.7699C114.994 62.2647 112.177 65.0876 111.514 65.5882C110.684 66.2575 112.502 63.7605 112.671 63.4346V63.2716C112.833 62.7769 114.326 61.607 114.495 61.281L114.326 60.6117C113.838 60.9434 113.339 61.607 112.845 62.1017L111.183 63.0912C111.514 62.6023 112.508 61.2694 112.845 60.7746C113.17 60.2857 113.676 59.9481 113.832 59.6164C113.676 59.2904 113.17 59.1274 113.17 58.784C112.845 57.9575 112.008 57.1252 111.183 56.9622C110.021 56.7934 108.703 56.7934 108.871 55.1346C108.871 54.9716 108.703 54.9716 108.703 54.8028C108.04 53.8133 107.547 52.6492 106.884 51.6598C106.701 51.483 106.468 51.3671 106.216 51.328C105.229 51.328 104.229 51.491 103.399 51.491C103.604 51.0801 103.717 50.6291 103.73 50.1697C103.73 49.675 103.73 48.6797 103.062 48.3421L100.749 49.6633L100.581 47.3468C99.756 46.8404 99.0879 48.0045 99.2622 48.1616V48.1675ZM66.8044 70.8848C57.9352 62.137 49.1065 53.348 40.3188 44.518C40.1619 44.1804 39.6681 44.0175 39.4938 44.1804C39.1627 44.3492 39 44.8498 39 45.1757V60.9434C39.0134 61.4764 39.1854 61.9932 39.4938 62.4276C39.9818 63.097 40.6499 63.7547 41.1495 64.4182C41.1495 64.5812 40.9869 64.5812 40.9869 64.5812L39.4996 63.097C39.4996 63.26 39.337 63.26 39.337 63.26C39.8308 63.9293 40.1677 64.5812 40.6615 65.2506L40.493 65.4136C40.005 64.9246 39.6681 64.2553 39.1743 63.7547C38.849 65.2389 39.1743 66.2342 40.1677 67.2295C40.8358 67.8989 41.3296 68.7196 41.9919 69.5519L41.8292 69.7149C40.9985 68.7196 40.005 67.8873 39.1743 66.892C39 67.0782 39 67.2412 39 67.2412V91.9491C39 92.2809 39 92.4439 39.1627 92.6185L42.4741 95.9362C42.6496 95.6237 42.8731 95.3408 43.1364 95.098L60.8438 77.3572C62.1684 76.1989 62.1684 76.1989 61.0123 74.8777C60.3442 74.2083 59.8504 73.3876 59.1881 72.5553H59.3508C60.5127 73.7194 61.5003 74.7089 62.6622 75.7042L67.1239 71.234C66.9787 71.0594 66.9787 71.0594 66.8044 70.8848ZM156.532 104.725L132.365 128.938V129.27C137.826 134.573 143.287 140.055 148.748 145.521C151.896 148.676 155.202 151.824 158.345 155.136C158.839 155.631 159.832 156.132 160.169 155.969C160.5 155.969 160.332 155.806 160.5 154.304V150.829C160.5 150.666 160.5 150.334 160.332 150.16C159.844 149.496 159.013 148.839 158.345 148.169C157.683 147.337 156.864 146.685 156.196 145.853C156.358 145.853 153.546 142.867 153.546 142.867C154.865 144.025 159.67 148.006 160.826 149.001V123.461C160.724 123.151 160.556 122.867 160.332 122.629C159.844 122.14 157.195 118.816 156.689 118.322C156.689 118.322 158.839 120.312 158.839 120.149C159.333 120.475 160.158 121.634 160.663 121.971C160.826 121.808 160.826 121.645 160.826 121.645V107.385C159.664 106.39 158.676 105.231 157.514 104.067C157.201 104.225 157.201 104.225 156.532 104.725Z" fill="white"></path></svg> 