<?xml version="1.0" encoding="UTF-8"?> <svg xmlns="http://www.w3.org/2000/svg" width="200" height="200" viewBox="0 0 200 200" fill="none"><rect width="116" height="200" fill="#272E6F"></rect><path d="M100 0H200V200H116.5C116.5 162.442 117.461 168.319 113.5 139C111.561 124.65 102.652 125.076 100 102C96.8024 74.1749 100 22.1651 100 0Z" fill="#F99D1C"></path><path d="M192.857 30.0071H173.236V27.65H171.686V21.3643H169.371V28.4357H167.05V26.8643H124.571V25.2929H119.929L110.507 27.65L109.736 22.9357L115.3 19.7929V11.7857L114.521 10.2143L113.75 8.64286V6.28571C111.579 3.14286 103.857 0 99.6857 0C95.3572 0 91.4929 0.471428 87.1714 7.07143C82.8429 13.6714 85.6214 21.3643 85.6214 21.3643V25.2929C83.6143 23.5643 79.2857 22.9357 79.2857 22.9357C67.8572 22.9357 62.7572 40.6929 62.7572 46.6643C62.7572 52.6286 63.5286 57.0286 63.5286 57.0286H57.1929C55.1857 57.0286 54.8714 61.2714 54.8714 65.6714C54.7214 70.0714 53.4857 76.9857 54.1 78.4C54.5643 79.6571 59.6643 79.9714 59.6643 79.9714C59.6643 79.9714 58.2714 80.6 56.5714 83.1143C54.7143 85.7786 56.5714 92.6929 56.5714 92.6929V103.85L55.4929 104.479L53.95 106.05V108.407L54.7214 109.979L53.95 112.336V115.479L55.4929 117.836C55.4929 117.836 54.8714 121.914 53.95 126.479C53.0214 131.193 53.1714 143.121 53.1714 143.121C51.0143 143.286 50.8572 146.264 50.8572 146.264C50.8572 146.264 50.3929 146.9 47.7643 150.979C44.9786 155.064 44.2143 159.15 43.9072 162.136C43.4429 165.121 41.4286 167.321 39.2643 170.779C36.95 174.236 40.8143 178.636 40.8143 178.636C36.7929 188.529 35.8714 195.6 35.7143 199.843H50.7C49.9083 197.298 49.4921 194.651 49.4643 191.986C49.4643 187.586 53.3286 180.05 53.3286 180.05L56.4214 179.264L57.1929 176.121C57.8072 173.45 60.5929 167.793 62.7572 163.393C64.7572 158.993 62.7572 156.321 62.7572 156.321L64.3 152.393L66.6143 150.036L69.7071 146.107L72.0286 142.964L72.8 139.036C72.8 139.036 74.5 133.857 75.1143 130.4C75.7357 126.786 80.6786 121.757 80.6786 121.757L81.45 117.829L85.3143 124.114L89.95 124.9L100.15 141.557H105.707L107.257 143.129V150.2L104.936 153.343L106.486 165.279L107.257 173.921L108.8 175.493L110.343 187.429L108.029 189L107.257 200H137.85V199.371L137.079 197.014L133.986 195.443L130.129 193.871L122.243 185.229L123.014 174.079L124.564 170.936V165.436L123.014 162.293L124.564 154.436L125.336 139.357L123.786 138.571V133.857H122.243C122.243 133.857 119.15 124.9 117.607 120.343C115.907 115.793 110.193 107.621 107.407 105.264C104.629 102.907 104.479 98.8214 104.321 97.4071C104.164 95.8357 105.864 94.2643 105.864 94.2643C105.864 94.2643 106.636 94.7357 108.186 95.05C109.729 95.3643 109.729 94.2643 109.729 94.2643L111.271 91.1214L112.814 88.7643L113.593 81.6929V71.3357C113.129 67.4071 109.729 65.8357 109.729 65.8357L110.5 62.6929L113.593 64.2643L117.45 65.8357L122.093 68.1929L127.65 69.7643L131.514 68.9786L135.371 66.6214L139.243 61.1214L140.786 54.05L143.1 53.2643L143.879 51.6929L143.1 48.55V41.4786L146.193 39.1214L146.964 37.55L149.286 35.9786H167.357V33.6286H192.55V30.0143H192.857V30.0071ZM128.429 48.2357L126.107 43.5214L132.443 44.3071L128.421 48.2357H128.429ZM133.986 41.95H129.35L130.893 38.8071H133.986V41.95Z" fill="white"></path></svg> 