<?xml version="1.0" encoding="UTF-8"?> <svg xmlns="http://www.w3.org/2000/svg" width="200" height="200" viewBox="0 0 200 200" fill="none"><rect width="200" height="200" fill="#353C42"></rect><path d="M150.318 53L136.624 67.8408C136.624 67.8408 150.318 82.6816 150.318 98.7502C150.318 112.356 144.091 123.485 144.091 123.485L115.448 97.5152L102.994 71.5528V112.356L129.898 138.818C129.898 138.818 119.559 148.955 100.5 149.454C81.4477 148.955 71.1093 138.818 71.1093 138.818L98.0134 112.356V71.5528L85.5588 97.5152L56.9162 123.485C56.9162 123.485 50.6818 112.356 50.6818 98.7573C50.6818 82.6816 64.3832 67.8408 64.3832 67.8408L50.6818 53C34.4938 70.3107 32 88.8634 32 98.7573C32 108.644 34.4938 127.197 49.4349 144.507C64.3832 161.818 83.0651 168 100.5 168C117.935 168 136.624 161.818 151.565 144.507C166.513 127.197 169 108.644 169 98.7502C169 88.8634 166.506 70.3107 150.318 53Z" fill="#F3F3F3"></path><path d="M140 43.3619C120 31.0462 104.376 30.8069 100 31.0462C95.6239 30.8069 80 31.0462 60 43.3619L72.5063 58C72.5063 58 84.3761 51.0469 100 50.6809C115.624 51.0469 127.501 58 127.501 58L140 43.3619Z" fill="#F99E19"></path></svg> 