<?xml version="1.0" encoding="UTF-8"?> <svg xmlns="http://www.w3.org/2000/svg" width="200" height="200" viewBox="0 0 200 200" fill="none"><rect width="200" height="200" fill="url(#paint0_linear)"></rect><path d="M139.187 145.247C144.394 140.151 148.526 134.085 151.345 127.4C154.163 120.715 155.611 113.544 155.605 106.302C155.605 76.005 130.672 51.3555 100 51.3555C98.9059 51.3555 97.7672 51.3996 96.5168 51.4732H96.5019V37.3247L97.2238 37.2732C98.5635 37.1849 99.1813 37.1482 100 37.1482C138.703 37.1482 170 68.0704 170 106.31C170.016 120.213 165.759 133.793 157.794 145.255H139.187V145.247ZM54.5019 74.7843C47.9139 84.0047 44.3802 95.0158 44.3871 106.302C44.3871 117.752 47.982 128.672 54.5019 137.82V158.874L53.3334 157.844C45.9817 151.367 40.1016 143.426 36.0799 134.542C32.0582 125.658 29.9862 116.034 30.0001 106.302C29.9884 96.574 32.0615 86.9535 36.0832 78.0737C40.1048 69.1939 45.9838 61.256 53.3334 54.7823L54.5019 53.7528V74.7843ZM55.663 26H88.9176L88.3966 149.924C88.3966 151.939 90.0489 153.579 92.0883 153.579L168.839 152.917L149.986 172H55.663L62.3169 163.242C62.7989 162.61 63.0601 161.841 63.0612 161.05V36.957C63.0601 36.1661 62.7989 35.397 62.3169 34.7656L55.663 26Z" fill="#E2C57F"></path><defs><linearGradient id="paint0_linear" x1="100" y1="0" x2="100" y2="200" gradientUnits="userSpaceOnUse"><stop stop-color="#062039"></stop><stop offset="1" stop-color="#04546B"></stop></linearGradient></defs></svg> 