<?xml version="1.0" encoding="UTF-8"?> <svg xmlns="http://www.w3.org/2000/svg" width="200" height="200" viewBox="0 0 200 200" fill="none"><rect width="200" height="200" fill="#37221F"></rect><path d="M142.43 143.062L136.913 126.27C138.972 123.359 140.683 120.199 142.025 116.841L171 99.5385L141.67 82.25C140.46 79.3901 138.962 76.6613 137.197 74.1063L142.039 55.0428L123.565 61.1062C121.35 59.7378 119.023 58.562 116.607 57.5917L99.5385 29L82.747 57.4781C80.0135 58.5644 77.4078 59.8921 74.9583 61.4541L54.0133 55.4333L60.2471 76.6339C59.0413 78.6609 57.9945 80.7783 57.116 82.9671L29 99.5385L56.761 116.117C57.7015 118.604 58.8586 121.003 60.2187 123.288L54.4109 143.452L73.7939 137.758C76.5771 139.654 79.5733 141.237 82.7399 142.493L99.5385 171L116.621 142.38C119.274 141.308 121.82 139.989 124.225 138.439L142.43 143.062Z" fill="#C07B00"></path><path d="M100 136C119.882 136 136 119.882 136 100C136 80.1177 119.882 64 100 64C80.1177 64 64 80.1177 64 100C64 119.882 80.1177 136 100 136Z" fill="#5C3613"></path><path d="M79.0943 124C78.7122 123.468 78.1602 121.564 78.1602 121.564L77.1129 119.336C77.1129 119.336 76.1788 117.755 78.1602 118.071C80.1416 118.387 87.3315 121.248 91.2943 121.355C95.2572 121.456 97.3377 119.343 98.0666 119.128C98.7955 118.912 103.07 117.223 104.322 117.015C105.575 116.799 113.288 112.006 114.435 100.486C115.581 88.9594 105.363 82.1899 99.5244 82.0821C99.5244 82.0821 95.88 81.9743 95.0449 82.5061C94.2099 83.0379 88.7892 85.5747 86.3973 85.8909C86.3973 85.8909 84.4159 87.8024 84.7273 90.1308C85.0386 92.4592 85.0386 100.472 93.3749 100.486C93.3749 100.486 95.3705 99.394 95.1582 91.4818C95.1582 91.4818 105.532 90.6051 105.801 100.486C106.077 110.367 96.5027 111.74 90.5725 111.467C84.6424 111.194 72.1026 102.843 73.0509 89.5631L73.7798 84.8345L75.8674 82.3983C75.8674 82.3983 80.6582 72.553 91.6057 69.5923C91.6057 69.5923 92.5398 68.0041 93.6933 68.0041C94.8397 68.0041 95.7738 69.2761 97.4439 69.4845C99.1069 69.7001 99.7367 67.9035 101.301 68.0041C102.857 68.1047 102.964 69.2761 104.634 69.5851C106.304 69.9085 114.435 70.8571 121.002 79.9621C121.002 79.9621 121.313 82.2905 122.247 82.7145C123.189 83.1457 125.375 84.0943 125.694 84.8345C126.005 85.5747 128.192 93.5155 127.986 96.9003C127.774 100.285 126.84 116.059 116.522 120.931L116.31 123.784C116.31 123.784 108.597 130.777 96.8141 129.929C85.0386 129.081 81.8683 127.823 79.0943 124Z" fill="#79D0FF"></path></svg> 