<?xml version="1.0" encoding="UTF-8"?> <svg xmlns="http://www.w3.org/2000/svg" width="200" height="200" viewBox="0 0 200 200" fill="none"><rect x="16" y="32" width="165" height="139" fill="white"></rect><path d="M37.775 119.295C39.7196 120.558 40.9752 121.799 42.8568 123.373L58.1057 138.043C61.2874 141.184 69.4323 149.718 72.5621 153.499C74.6992 156.077 75.6252 156.355 77.1956 158.899C76.6178 159.121 69.4952 160.818 65.3543 162.296C56.7279 165.373 48.8719 170.307 41.3604 167.666C40.2381 167.27 35.123 162.203 32.7785 160.488L28.4708 157.358C23.9002 154.044 22.589 156.325 28.6634 141.643C30.2524 137.803 31.5969 134.347 33.1081 130.584C34.4304 127.299 36.249 121.984 37.7787 119.291L37.775 119.295ZM148.144 35.0821C151.189 36.2192 158.563 40.7563 160.37 43.1934C161.893 45.2453 161.452 45.4379 160.889 48.3935L157.889 73.6495C153.733 73.8125 154.933 73.2791 152.359 71.4198C148.04 68.3013 133.217 56.5196 128.458 52.3936L119.305 44.4786C119.983 43.8008 119.072 44.1564 120.598 43.7267L134.147 40.4415C141.203 38.5378 142.299 38.0377 148.148 35.0747L148.144 35.0821ZM21.0519 40.2489C24.2595 38.4637 25.9707 39.8193 31.3858 35.9303C32.8377 34.8895 36.1749 34.9895 38.201 35.2673C40.3011 35.5525 45.1384 39.5526 47.357 40.9045C48.6386 41.686 54.4129 46.0564 55.3537 47.5676L58.2057 52.1306C62.1356 52.3232 61.443 52.0973 66.4025 55.6936L113.842 86.7386C124.043 93.7684 135.947 100.95 146.207 108.035L175.445 127.013C174.601 128.813 173.616 135.021 173.064 137.503C170.53 148.903 167.345 153.732 162.189 164.696C154.781 164.985 148.933 164.929 141.692 164.814C139.347 164.777 139.925 165.262 138.643 164.033L122.409 146.895C120.928 145.469 119.598 144.136 118.127 142.584C106.275 130.062 111.886 133.832 109.568 130.717L85.7183 108.361C80.244 103.083 75.3104 97.3981 69.6508 91.4498C68.1952 89.9239 67.4655 88.4831 65.9506 87.0942L65.5321 86.7201L64.9061 86.0609L57.9761 78.2533C56.7575 77.1348 56.8723 77.1718 55.976 76.1644L49.746 69.7902C48.3756 68.3642 47.3089 66.8901 46.0051 65.3531L40.0492 59.09L37.6491 57.0307C34.8193 54.1084 32.4377 51.3084 29.5746 48.3861C27.2856 46.049 21.7112 41.5563 21.0519 40.2452V40.2489ZM51.135 3.67414L1.94717 4.67786C-0.70482 14.3966 1.93236 9.47795 1.93606 19.6263L1.92865 38.0007C1.52863 43.3082 0.117447 46.012 0.121151 53.1084C0.121151 55.4973 -0.408507 60.9789 0.74711 62.8493C2.79537 66.1642 2.74351 68.9679 3.60652 73.7569C4.37323 78.0089 5.20661 77.5607 3.27688 80.7682L2.37683 88.8942L6.58076 92.9758L6.61039 100.113C4.10655 102.391 6.9067 100.769 1.61753 104.557L2.09163 126.113L7.29931 129.869L6.21037 148.243C0.713775 152.155 1.89532 156.896 2.07311 161.766L2.74351 180.092L1.53604 189.485C13.8478 192.563 11.1477 191.607 25.2225 191.607C37.6602 191.607 36.0527 191.733 48.346 190.252L48.6645 192.333C50.5683 192.211 52.5351 192.107 54.4129 191.926C59.6466 191.418 57.5539 190.818 59.3577 190.174C60.6614 189.704 74.677 192.937 76.9549 193.426C78.2105 192.029 77.5734 192.592 79.3254 191.467C80.2736 193.455 84.3294 198.018 85.9776 200L91.0556 195.27L99.9376 198.693L102.538 196.518C103.553 197.711 104.171 199.207 105.982 199.441C108.62 199.785 109.049 195.448 114.868 195.337L148.599 194.218L149.755 193.107L151.477 191.715C153.692 193.041 154.637 194.318 157.678 194.115C166.982 193.504 162.111 196.352 174.119 195.711C176.19 195.6 175.675 195.096 177.501 194.455L181.398 193.859C180.553 191.604 180.009 191.922 178.323 190.237L199.691 194.526C199.418 167.483 199.446 140.437 199.776 113.395L194.032 113.821C194.239 112.154 196.743 112.78 196.939 109.428C197.187 105.202 197.143 90.735 196.521 87.6424C196.206 86.0646 192.15 81.4534 191.068 80.02C192.357 76.5385 192.487 76.7718 194.872 73.9347C194.672 72.068 194.232 71.568 193.424 69.442L199.687 67.405C199.758 63.8271 200.162 49.4787 199.928 44.9453L197.391 20.4448L199.328 14.3188L199.413 8.02607C194.006 4.92972 194.713 4.58897 190.957 4.6149C187.587 4.63712 183.046 4.45934 179.816 3.726C175.668 2.78153 176.782 2.11485 172.234 6.74827L170.171 2.28523C163.678 1.80744 142.858 0 137.906 0C131.576 0 132.495 0.470379 130.354 7.60755L121.268 8.53719L120.061 4.63712L111.827 4.54453L112.701 3.59266C114.309 2.07041 113.746 2.68153 115.005 0L81.8959 0.00370377C80.8033 2.01115 78.7994 3.54081 76.4438 4.3186C73.1473 5.40751 74.7807 3.65192 72.6954 5.50751C71.1361 6.89642 70.8657 6.81124 68.4063 6.75938C65.115 6.69336 61.8245 6.59212 58.5354 6.45568C57.0316 6.39271 55.376 6.54457 53.9314 6.20382C51.7017 5.68159 52.3499 5.1075 51.1313 3.67785L51.135 3.67414Z" fill="url(#paint0_linear)"></path><defs><linearGradient id="paint0_linear" x1="100" y1="0" x2="100" y2="200" gradientUnits="userSpaceOnUse"><stop stop-color="#BD3219"></stop><stop offset="1" stop-color="#832212"></stop></linearGradient></defs></svg> 