<?xml version="1.0" encoding="UTF-8"?> <svg xmlns="http://www.w3.org/2000/svg" width="200" height="200" viewBox="0 0 200 200" fill="none"><rect width="200" height="200" fill="#171717"></rect><path d="M43 43C56.8225 52.4976 65.5008 57.25 69.0205 57.25V127.403H92.8679C66.8474 133.388 50.2248 140.691 43 149.326V43ZM157 43V149.326C149.775 140.691 133.153 133.388 107.125 127.403H130.979V57.25C134.499 57.25 143.177 52.4976 157 43ZM86.3628 81.3681C95.3438 82.7578 104.485 82.7578 113.466 81.3681C112.061 86.4006 111.366 91.6046 111.4 96.8294C111.4 102.316 112.091 107.752 113.466 113.153C105.515 125.579 100.997 140.192 99.9145 157C98.8315 140.192 94.3143 125.579 86.3628 113.153C87.7585 107.825 88.4884 102.344 88.5359 96.8365C88.5359 91.6709 87.8091 86.5195 86.3628 81.3681Z" fill="white"></path></svg> 