<svg width="168" height="33" viewBox="0 0 168 33" fill="none" xmlns="http://www.w3.org/2000/svg">
<path d="M75.927 17.2746L69.686 7H67L74.7157 19.4651V25.2544H77.1647V19.4651L84.8803 7H82.1943L75.927 17.2746Z" fill="white"/>
<path d="M91.598 11.2767C86.5947 11.2767 84.4353 13.0761 84.4353 18.2916C84.4353 23.5332 86.5947 25.4108 91.598 25.4108C96.6013 25.4108 98.7607 23.5332 98.7607 18.2916C98.7607 13.0761 96.6013 11.2767 91.598 11.2767ZM86.7527 18.2916C86.7527 14.38 88.043 13.05 91.598 13.05C95.153 13.05 96.4433 14.38 96.4433 18.2916C96.4433 22.2033 95.153 23.6376 91.598 23.6376C88.043 23.6376 86.7527 22.2033 86.7527 18.2916Z" fill="white"/>
<path d="M114.017 11.4332H111.805V22.5944C111.805 23.2985 111.515 23.4811 110.989 23.4811H107.012C104.906 23.4811 104.221 22.2554 104.221 20.3778V11.4332H102.009V20.769C102.009 23.9505 103.694 25.2544 106.723 25.2544H111.884C113.411 25.2544 114.017 24.446 114.017 22.9856V11.4332Z" fill="white"/>
<path d="M119.907 25.2544H124.173C128.649 25.2544 129.887 22.5944 129.887 18.2916C129.887 13.9888 128.649 11.4332 124.173 11.4332H119.986C118.616 11.4332 117.695 12.033 117.695 13.5977V29.6876H119.907V25.2544ZM119.907 14.0149C119.907 13.389 120.196 13.2065 120.723 13.2065H123.778C127.122 13.2065 127.57 15.2927 127.57 18.2916C127.57 21.2906 127.122 23.4811 123.778 23.4811H119.907V14.0149Z" fill="white"/>
<path d="M133.123 25.2544H135.335V7H133.123V25.2544Z" fill="white"/>
<path d="M139.617 11.4332V13.2065H146.411C147.807 13.2065 148.386 14.0149 148.386 15.1884V16.8313H142.198C139.643 16.8313 138.564 18.2916 138.564 21.0298C138.564 23.8983 139.643 25.2544 142.198 25.2544H148.412C150.045 25.2544 150.598 24.5764 150.598 23.1682V15.2145C150.598 12.9457 149.439 11.4332 146.964 11.4332H139.617ZM148.386 18.6046V22.777C148.386 23.1942 148.149 23.4811 147.649 23.4811H142.619C141.25 23.4811 140.881 22.5162 140.881 21.0298C140.881 19.5434 141.25 18.6046 142.619 18.6046H148.386Z" fill="white"/>
<path d="M167.268 11.4332H164.951L159.895 22.8552L155.023 11.4332H152.706L158.762 25.2544L156.629 29.7137H158.947L167.268 11.4332Z" fill="white"/>
<g clip-path="url(#clip0)">
<path d="M5.07015 32C4.13659 32 3.40605 31.6309 2.80898 30.9323C2.18525 30.2025 1.69419 29.0906 1.38163 27.634C0.757026 24.723 0.911583 20.7482 1.75384 16.7039C2.5946 12.6668 4.09769 8.67117 6.07703 5.71226C8.07689 2.7227 10.411 1 12.8798 1C15.1782 1 17.0921 1.49983 19.1454 2.0369L19.1482 2.03765C21.1871 2.57094 23.3584 3.13889 26 3.13889C28.6415 3.13889 30.8129 2.57094 32.8517 2.03765L32.8546 2.0369C34.9079 1.49983 36.8218 1 39.1202 1C41.589 1 43.9231 2.7227 45.923 5.71226C47.9023 8.67117 49.4054 12.6668 50.2462 16.7039C51.0884 20.7482 51.243 24.723 50.6184 27.634C50.3058 29.0906 49.8148 30.2025 49.191 30.9323C48.594 31.6309 47.8634 32 46.9299 32C44.5947 32 42.9461 31.4866 41.5953 30.7402C40.3236 30.0375 39.2922 29.1202 38.1418 28.0971C38.0393 28.006 37.9358 27.9139 37.8311 27.8211C36.5742 26.707 35.1773 25.5169 33.3038 24.6212C31.4174 23.7194 29.1004 23.1389 26 23.1389C22.8995 23.1389 20.5826 23.7194 18.6962 24.6212C16.8227 25.5169 15.4257 26.707 14.1688 27.8211C14.0642 27.9139 13.9607 28.006 13.8581 28.0972C12.7078 29.1202 11.6764 30.0375 10.4047 30.7402C9.05388 31.4866 7.40526 32 5.07015 32Z" stroke="white" stroke-width="2"/>
<path fill-rule="evenodd" clip-rule="evenodd" d="M39.4326 9.16666C39.4326 10.3479 38.4536 11.3055 37.2459 11.3055C36.0382 11.3055 35.0592 10.3479 35.0592 9.16666C35.0592 7.98538 36.0382 7.02777 37.2459 7.02777C38.4536 7.02777 39.4326 7.98538 39.4326 9.16666ZM35.0592 13.4444C35.0592 14.6257 34.0802 15.5833 32.8725 15.5833C31.6648 15.5833 30.6858 14.6257 30.6858 13.4444C30.6858 12.2632 31.6648 11.3056 32.8725 11.3056C34.0802 11.3056 35.0592 12.2632 35.0592 13.4444ZM41.6193 15.5833C42.827 15.5833 43.806 14.6257 43.806 13.4444C43.806 12.2632 42.827 11.3056 41.6193 11.3056C40.4116 11.3056 39.4326 12.2632 39.4326 13.4444C39.4326 14.6257 40.4116 15.5833 41.6193 15.5833ZM39.4326 17.7222C39.4326 18.9035 38.4536 19.8611 37.2459 19.8611C36.0382 19.8611 35.0592 18.9035 35.0592 17.7222C35.0592 16.5409 36.0382 15.5833 37.2459 15.5833C38.4536 15.5833 39.4326 16.5409 39.4326 17.7222ZM9.99638 15.2778C8.96123 15.2778 8.12207 14.457 8.12207 13.4444C8.12207 12.4319 8.96123 11.6111 9.99638 11.6111C11.0315 11.6111 11.8707 10.7903 11.8707 9.77777C11.8707 8.76525 12.7099 7.94444 13.745 7.94444C14.7802 7.94444 15.6193 8.76525 15.6193 9.77777C15.6193 10.7903 16.4585 11.6111 17.4936 11.6111C18.5288 11.6111 19.3679 12.4319 19.3679 13.4444C19.3679 14.457 18.5288 15.2778 17.4936 15.2778C16.4585 15.2778 15.6193 16.0986 15.6193 17.1111C15.6193 18.1236 14.7802 18.9444 13.745 18.9444C12.7099 18.9444 11.8707 18.1236 11.8707 17.1111C11.8707 16.0986 11.0315 15.2778 9.99638 15.2778Z" fill="white"/>
</g>
<defs>
<clipPath id="clip0">
<rect width="52" height="33" fill="white"/>
</clipPath>
</defs>
</svg>
