<svg width="38" height="46" viewBox="0 0 38 46" fill="none" xmlns="http://www.w3.org/2000/svg">
<path fill-rule="evenodd" clip-rule="evenodd" d="M19 45.9167C19 45.9167 37.75 33.4167 37.75 18.8333C37.75 13.8605 35.7746 9.0914 32.2582 5.57509C28.7419 2.05878 23.9728 0.0833435 19 0.0833435C14.0272 0.0833435 9.25805 2.05878 5.74175 5.57509C2.22544 9.0914 0.25 13.8605 0.25 18.8333C0.25 33.4167 19 45.9167 19 45.9167ZM19 25.0833C22.4518 25.0833 25.25 22.2851 25.25 18.8333C25.25 15.3816 22.4518 12.5833 19 12.5833C15.5482 12.5833 12.75 15.3816 12.75 18.8333C12.75 22.2851 15.5482 25.0833 19 25.0833Z" fill="#D31C3E"/>
</svg>
