<svg width="80" height="90" viewBox="0 0 80 90" fill="none" xmlns="http://www.w3.org/2000/svg">
<path fill-rule="evenodd" clip-rule="evenodd" d="M55.9292 2.99835C43.5398 -5.70177 23.3628 4.44832 25.1327 34.5364C19.0399 38.2583 16.097 41.3815 10.9735 47.2242C7.71645 38.1813 6.00286 33.0496 6.0177 22.2112C12.5885 19.2778 15.9234 17.4156 24.4248 15.6861C25.0826 13.7479 25.7233 12.2607 26.8252 9.70328L26.9027 9.52347C15.5585 11.4916 9.51785 13.3012 0 19.3112C-8.6477e-06 32.3614 1.76992 42.1491 7.43363 52.6618C4.60177 59.5494 3.89381 66.437 4.60177 73.6872C8.62944 68.9933 10.495 67.6628 13.8053 65.3495C22.3009 77.3122 27.9646 83.4749 40 90C47.4336 86.0124 57.3451 78.7623 59.823 73.6872C66.9027 59.1869 61.5929 45.0491 54.5133 29.8238C53.5546 27.7622 54.14 19.4848 55.5752 15.6861C62.6549 17.1361 66.9522 18.8861 74.3363 22.2112C73.9823 35.2614 71.5044 43.9616 65.8407 54.4743C66.4955 59.0256 66.5253 61.3056 66.5487 65.3495C74.3363 51.9368 80 37.799 80 19.3112C73.2743 14.9611 66.9027 11.6985 59.115 10.9735C61.2389 7.34842 65.1327 5.17338 70.7965 4.44838C66.1947 2.27332 61.9469 1.91082 55.9292 2.99835ZM24.4248 68.9746C22.0101 66.8888 20.797 65.528 19.115 62.4495C25.0925 58.4501 28.4143 58.0091 34.3363 57.3744C29.595 59.4155 26.9955 60.5892 24.0708 63.537C23.711 66.5534 23.9191 67.5098 24.4248 68.9746ZM53.4513 13.511C53.2095 11.9264 53.148 10.9168 53.4513 8.43594C57.2337 6.34265 59.3981 5.59367 63.3628 5.17338C58.4662 7.34467 56.3331 9.20719 53.4513 13.511ZM42.8319 45.4116C35.5888 24.7487 30.7965 11.6985 43.5398 5.17338C39.646 12.786 40.708 24.0237 50.6195 29.8238C50.6195 33.8114 53.7879 38.8865 55.5752 43.9616C63.3628 66.0745 50.6195 75.8622 42.1239 81.6623C47.4336 70.0621 47.7876 59.5494 42.8319 45.4116Z" fill="white"/>
</svg>
