<svg width="113" height="62" viewBox="0 0 113 62" fill="none" xmlns="http://www.w3.org/2000/svg">
<path d="M46.7267 0.199998L39.0087 24H31.8007L27.2447 9.516L22.4847 24H15.2767L7.55872 0.199998H14.4947L19.2887 15.398L24.3207 0.199998H30.5087L35.3027 15.534L40.3007 0.199998H46.7267ZM68.3348 19.376H58.2708L56.4008 24H49.5328L60.0388 0.199998H66.6688L77.2088 24H70.2048L68.3348 19.376ZM66.3628 14.412L63.3028 6.796L60.2428 14.412H66.3628ZM93.6013 17.676H89.9293V24H83.1973V0.199998H94.0773C96.2306 0.199998 98.1006 0.562665 99.6873 1.288C101.274 1.99067 102.498 3.01067 103.359 4.348C104.221 5.66267 104.651 7.21533 104.651 9.006C104.651 10.7287 104.243 12.236 103.427 13.528C102.634 14.7973 101.489 15.7947 99.9933 16.52L105.127 24H97.9193L93.6013 17.676ZM97.8513 9.006C97.8513 7.89533 97.5 7.034 96.7973 6.422C96.0946 5.81 95.052 5.504 93.6693 5.504H89.9293V12.474H93.6693C95.052 12.474 96.0946 12.1793 96.7973 11.59C97.5 10.978 97.8513 10.1167 97.8513 9.006ZM21.9544 55.662V61H0.636407V56.784L12.6384 42.538H0.942407V37.2H21.4444V41.416L9.44241 55.662H21.9544ZM40.7854 61.476C38.2694 61.476 36.0027 60.9433 33.9854 59.878C31.9907 58.8127 30.4154 57.3393 29.2594 55.458C28.126 53.5767 27.5594 51.4573 27.5594 49.1C27.5594 46.7427 28.126 44.6233 29.2594 42.742C30.4154 40.8607 31.9907 39.3873 33.9854 38.322C36.0027 37.2567 38.2694 36.724 40.7854 36.724C43.3014 36.724 45.5567 37.2567 47.5514 38.322C49.5687 39.3873 51.144 40.8607 52.2774 42.742C53.4334 44.6233 54.0114 46.7427 54.0114 49.1C54.0114 51.4573 53.4334 53.5767 52.2774 55.458C51.144 57.3393 49.5687 58.8127 47.5514 59.878C45.5567 60.9433 43.3014 61.476 40.7854 61.476ZM40.7854 55.9C41.9867 55.9 43.0747 55.6167 44.0494 55.05C45.024 54.4833 45.7947 53.69 46.3614 52.67C46.928 51.6273 47.2114 50.4373 47.2114 49.1C47.2114 47.7627 46.928 46.584 46.3614 45.564C45.7947 44.5213 45.024 43.7167 44.0494 43.15C43.0747 42.5833 41.9867 42.3 40.7854 42.3C39.584 42.3 38.496 42.5833 37.5214 43.15C36.5467 43.7167 35.776 44.5213 35.2094 45.564C34.6427 46.584 34.3594 47.7627 34.3594 49.1C34.3594 50.4373 34.6427 51.6273 35.2094 52.67C35.776 53.69 36.5467 54.4833 37.5214 55.05C38.496 55.6167 39.584 55.9 40.7854 55.9ZM84.2613 37.2V61H78.7193L68.2133 48.318V61H61.6173V37.2H67.1593L77.6653 49.882V37.2H84.2613ZM112.198 55.798V61H93.0898V37.2H111.756V42.402H99.7538V46.414H110.328V51.446H99.7538V55.798H112.198Z" fill="white"/>
</svg>
