<svg width="105" height="90" viewBox="0 0 105 90" fill="none" xmlns="http://www.w3.org/2000/svg">
<path d="M82.9201 63.6877C67.8141 56.5116 57.1511 68.7708 62.7788 90C66.9255 72.0598 92.3983 81.9269 93.8793 70.5648C88.2018 73.7104 85.5858 71.4618 85.5858 68.7708C85.5858 64.2857 95.9526 62.4917 99.8032 59.2027C105.404 54.4186 106.912 46.3455 102.173 39.4684C101.284 48.1395 93.8793 52.99 92.3983 49.3355C89.369 41.8605 99.8032 34.6844 99.8032 28.4053C99.8032 17.0432 92.3983 14.0532 95.6564 1.49502C90.2567 4.03634 86.4744 6.31696 86.4744 17.0432C86.4744 28.4053 78.4771 37.0764 73.1456 31.6944C69.8875 28.4053 80.5505 15.5482 68.4065 13.4551C71.9609 22.4252 59.2245 25.4153 59.2245 36.4784C59.2245 47.5415 83.5124 41.2625 82.9201 63.6877Z" fill="white"/>
<path d="M74.6266 53.8206C72.9877 53.7543 72.127 53.3633 70.7761 51.4286C72.6273 52.0842 73.5414 52.55 74.6266 53.8206Z" fill="white"/>
<path d="M49.45 52.6246C69.8875 69.3688 43.8223 95.0831 20.4229 78.3389C28.1235 78.9369 32.5665 76.8439 31.9741 72.3588C30.9376 64.5117 22.4958 69.1552 15.0914 69.3688C4.72408 69.6678 -1.19977 60.9967 1.76263 47.2425C4.42832 54.7176 14.3298 56.5116 15.0914 50.2326C16.8686 35.5814 -11.5662 31.6944 13.018 0C10.3523 20.0332 24.2734 32.5914 28.124 28.4053C30.7897 25.7143 22.2001 17.266 29.9011 12.2591C32.8631 26.3123 52.412 24.5183 42.9337 48.4385C39.8694 56.1721 47.3767 61.5947 49.45 52.6246Z" fill="white"/>
<path d="M82.9201 63.6877C67.8141 56.5116 57.1511 68.7708 62.7788 90C66.9255 72.0598 92.3983 81.9269 93.8793 70.5648C88.2018 73.7104 85.5858 71.4618 85.5858 68.7708C85.5858 64.2857 95.9526 62.4917 99.8032 59.2027C105.404 54.4186 106.912 46.3455 102.173 39.4684C101.284 48.1395 93.8793 52.99 92.3983 49.3355C89.369 41.8605 99.8032 34.6844 99.8032 28.4053C99.8032 17.0432 92.3983 14.0532 95.6564 1.49502C90.2567 4.03634 86.4744 6.31696 86.4744 17.0432C86.4744 28.4053 78.4771 37.0764 73.1456 31.6944C69.8875 28.4053 80.5505 15.5482 68.4065 13.4551C71.9609 22.4252 59.2245 25.4153 59.2245 36.4784C59.2245 47.5415 83.5124 41.2625 82.9201 63.6877Z" stroke="white"/>
<path d="M74.6266 53.8206C72.9877 53.7543 72.127 53.3633 70.7761 51.4286C72.6273 52.0842 73.5414 52.55 74.6266 53.8206Z" stroke="white"/>
<path d="M49.45 52.6246C69.8875 69.3688 43.8223 95.0831 20.4229 78.3389C28.1235 78.9369 32.5665 76.8439 31.9741 72.3588C30.9376 64.5117 22.4958 69.1552 15.0914 69.3688C4.72408 69.6678 -1.19977 60.9967 1.76263 47.2425C4.42832 54.7176 14.3298 56.5116 15.0914 50.2326C16.8686 35.5814 -11.5662 31.6944 13.018 0C10.3523 20.0332 24.2734 32.5914 28.124 28.4053C30.7897 25.7143 22.2001 17.266 29.9011 12.2591C32.8631 26.3123 52.412 24.5183 42.9337 48.4385C39.8694 56.1721 47.3767 61.5947 49.45 52.6246Z" stroke="white"/>
</svg>
