<svg width="55" height="90" viewBox="0 0 55 90" fill="none" xmlns="http://www.w3.org/2000/svg">
<path d="M23.9286 85.6627L27.5 89.2771L31.0714 85.6627C25 69.0361 44.2858 58.9991 52.5001 58.5542L52.8573 53.494C45.3769 55.3316 41.3369 58.1825 34.2857 65.4217C40.0923 55.9939 44.3328 52.7074 52.8573 48.7952C53.9286 26.747 33.9284 30 43.9286 13.3735C36.4287 20.6024 35.3215 24.0169 33.9286 38.3133C31.6549 25.7291 32.7985 19.2149 39.6429 8.6747L27.5 0L15.3571 8.6747C22.2015 19.2149 23.3451 25.7291 21.0714 38.3133C19.6785 24.0169 18.5713 20.6024 11.0714 13.3735C21.0716 30 1.07142 26.747 2.14275 48.7952C10.6672 52.7074 14.9077 55.9939 20.7143 65.4217C13.6631 58.1825 9.62308 55.3316 2.14275 53.494L2.49989 58.5542C10.7142 58.9991 30 69.0361 23.9286 85.6627Z" fill="white"/>
<path d="M7.85716 62.1687L2.49989 60C6.00064 64.8329 5.87804 67.3937 0 71.5663C3.93971 82.7156 8.70728 85.7814 18.2144 90C22.143 83.494 23.2144 76.988 21.0714 71.5663C14.6429 70.8434 7.85716 69.0361 7.85716 62.1687Z" fill="white"/>
<path d="M47.1428 62.1687L52.5001 60C48.9994 64.8329 49.122 67.3937 55 71.5663C51.0603 82.7156 46.2927 85.7814 36.7856 90C32.857 83.494 31.7856 76.988 33.9286 71.5663C40.3571 70.8434 47.1428 69.0361 47.1428 62.1687Z" fill="white"/>
</svg>
