<svg width="178" height="62" viewBox="0 0 178 62" fill="none" xmlns="http://www.w3.org/2000/svg">
<path d="M21.9373 25L21.8693 12.386L15.7493 22.654H12.7573L6.67134 12.726V25H0.449336V1.2H5.99134L14.3553 14.936L22.5153 1.2H28.0573L28.1253 25H21.9373ZM44.8908 25.476C42.3748 25.476 40.1081 24.9433 38.0908 23.878C36.0961 22.8127 34.5208 21.3393 33.3648 19.458C32.2315 17.5767 31.6648 15.4573 31.6648 13.1C31.6648 10.7427 32.2315 8.62333 33.3648 6.742C34.5208 4.86067 36.0961 3.38733 38.0908 2.322C40.1081 1.25666 42.3748 0.723998 44.8908 0.723998C47.4068 0.723998 49.6621 1.25666 51.6568 2.322C53.6741 3.38733 55.2495 4.86067 56.3828 6.742C57.5388 8.62333 58.1168 10.7427 58.1168 13.1C58.1168 15.4573 57.5388 17.5767 56.3828 19.458C55.2495 21.3393 53.6741 22.8127 51.6568 23.878C49.6621 24.9433 47.4068 25.476 44.8908 25.476ZM44.8908 19.9C46.0921 19.9 47.1801 19.6167 48.1548 19.05C49.1295 18.4833 49.9001 17.69 50.4668 16.67C51.0335 15.6273 51.3168 14.4373 51.3168 13.1C51.3168 11.7627 51.0335 10.584 50.4668 9.564C49.9001 8.52133 49.1295 7.71667 48.1548 7.15C47.1801 6.58333 46.0921 6.3 44.8908 6.3C43.6895 6.3 42.6015 6.58333 41.6268 7.15C40.6521 7.71667 39.8815 8.52133 39.3148 9.564C38.7481 10.584 38.4648 11.7627 38.4648 13.1C38.4648 14.4373 38.7481 15.6273 39.3148 16.67C39.8815 17.69 40.6521 18.4833 41.6268 19.05C42.6015 19.6167 43.6895 19.9 44.8908 19.9ZM84.2867 1.2V25H78.7447L68.2387 12.318V25H61.6427V1.2H67.1847L77.6907 13.882V1.2H84.2867ZM97.3993 25.476C95.4726 25.476 93.6026 25.238 91.7893 24.762C89.9759 24.286 88.5026 23.6513 87.3693 22.858L89.5793 17.894C90.6446 18.5967 91.8799 19.1633 93.2853 19.594C94.6906 20.0247 96.0733 20.24 97.4333 20.24C100.017 20.24 101.309 19.594 101.309 18.302C101.309 17.622 100.935 17.1233 100.187 16.806C99.4619 16.466 98.2833 16.1147 96.6513 15.752C94.8606 15.3667 93.3646 14.9587 92.1633 14.528C90.9619 14.0747 89.9306 13.3607 89.0693 12.386C88.2079 11.4113 87.7773 10.0967 87.7773 8.442C87.7773 6.99133 88.1739 5.688 88.9673 4.532C89.7606 3.35333 90.9393 2.424 92.5033 1.744C94.0899 1.064 96.0279 0.723998 98.3173 0.723998C99.8813 0.723998 101.423 0.905332 102.941 1.268C104.46 1.608 105.797 2.118 106.953 2.798L104.879 7.796C102.613 6.572 100.414 5.96 98.2833 5.96C96.9459 5.96 95.9713 6.164 95.3593 6.572C94.7473 6.95733 94.4413 7.46733 94.4413 8.102C94.4413 8.73667 94.8039 9.21267 95.5293 9.53C96.2546 9.84733 97.4219 10.176 99.0313 10.516C100.845 10.9013 102.341 11.3207 103.519 11.774C104.721 12.2047 105.752 12.9073 106.613 13.882C107.497 14.834 107.939 16.1373 107.939 17.792C107.939 19.22 107.543 20.512 106.749 21.668C105.956 22.824 104.766 23.7533 103.179 24.456C101.593 25.136 99.6659 25.476 97.3993 25.476ZM115.783 6.538H108.473V1.2H129.791V6.538H122.515V25H115.783V6.538ZM151.407 19.798V25H132.299V1.2H150.965V6.402H138.963V10.414H149.537V15.446H138.963V19.798H151.407ZM165.547 18.676H161.875V25H155.143V1.2H166.023C168.176 1.2 170.046 1.56267 171.633 2.288C173.219 2.99067 174.443 4.01067 175.305 5.348C176.166 6.66267 176.597 8.21533 176.597 10.006C176.597 11.7287 176.189 13.236 175.373 14.528C174.579 15.7973 173.435 16.7947 171.939 17.52L177.073 25H169.865L165.547 18.676ZM169.797 10.006C169.797 8.89533 169.445 8.034 168.743 7.422C168.04 6.81 166.997 6.504 165.615 6.504H161.875V13.474H165.615C166.997 13.474 168.04 13.1793 168.743 12.59C169.445 11.978 169.797 11.1167 169.797 10.006ZM53.9788 38.2C56.1321 38.2 58.0021 38.5627 59.5888 39.288C61.1754 39.9907 62.3994 41.0107 63.2608 42.348C64.1221 43.6627 64.5528 45.2153 64.5528 47.006C64.5528 48.7967 64.1221 50.3493 63.2608 51.664C62.3994 52.9787 61.1754 53.9987 59.5888 54.724C58.0021 55.4267 56.1321 55.778 53.9788 55.778H49.8308V62H43.0988V38.2H53.9788ZM53.5708 50.474C54.9534 50.474 55.9961 50.1793 56.6988 49.59C57.4014 48.978 57.7528 48.1167 57.7528 47.006C57.7528 45.8953 57.4014 45.034 56.6988 44.422C55.9961 43.81 54.9534 43.504 53.5708 43.504H49.8308V50.474H53.5708ZM67.8351 38.2H74.5671V56.662H85.9231V62H67.8351V38.2ZM104.799 57.376H94.7347L92.8647 62H85.9967L96.5027 38.2H103.133L113.673 62H106.669L104.799 57.376ZM102.827 52.412L99.7667 44.796L96.7067 52.412H102.827ZM126.837 53.466V62H120.105V53.364L111.027 38.2H118.133L123.777 47.652L129.421 38.2H135.949L126.837 53.466Z" fill="white"/>
</svg>
