<svg width="92" height="62" viewBox="0 0 92 62" fill="none" xmlns="http://www.w3.org/2000/svg">
<path d="M17.5621 12.59H23.5121V22.45C22.1521 23.4247 20.5881 24.1727 18.8201 24.694C17.0521 25.2153 15.2841 25.476 13.5161 25.476C11.0228 25.476 8.77876 24.9547 6.78409 23.912C4.78943 22.8467 3.22543 21.3733 2.09209 19.492C0.958758 17.6107 0.392092 15.48 0.392092 13.1C0.392092 10.72 0.958758 8.58933 2.09209 6.708C3.22543 4.82666 4.80076 3.36466 6.81809 2.322C8.83543 1.25666 11.1134 0.723998 13.6521 0.723998C15.8734 0.723998 17.8681 1.098 19.6361 1.846C21.4041 2.594 22.8774 3.67067 24.0561 5.076L19.7721 8.952C18.1628 7.184 16.2361 6.3 13.9921 6.3C11.9521 6.3 10.3088 6.92333 9.06209 8.17C7.81543 9.394 7.19209 11.0373 7.19209 13.1C7.19209 14.4147 7.47543 15.5933 8.04209 16.636C8.60876 17.656 9.40209 18.4607 10.4221 19.05C11.4421 19.6167 12.6094 19.9 13.9241 19.9C15.2161 19.9 16.4288 19.6393 17.5621 19.118V12.59ZM44.5422 25.476C42.0262 25.476 39.7595 24.9433 37.7422 23.878C35.7475 22.8127 34.1722 21.3393 33.0162 19.458C31.8828 17.5767 31.3162 15.4573 31.3162 13.1C31.3162 10.7427 31.8828 8.62333 33.0162 6.742C34.1722 4.86067 35.7475 3.38733 37.7422 2.322C39.7595 1.25666 42.0262 0.723998 44.5422 0.723998C47.0582 0.723998 49.3135 1.25666 51.3082 2.322C53.3255 3.38733 54.9008 4.86067 56.0342 6.742C57.1902 8.62333 57.7682 10.7427 57.7682 13.1C57.7682 15.4573 57.1902 17.5767 56.0342 19.458C54.9008 21.3393 53.3255 22.8127 51.3082 23.878C49.3135 24.9433 47.0582 25.476 44.5422 25.476ZM44.5422 19.9C45.7435 19.9 46.8315 19.6167 47.8062 19.05C48.7808 18.4833 49.5515 17.69 50.1182 16.67C50.6848 15.6273 50.9682 14.4373 50.9682 13.1C50.9682 11.7627 50.6848 10.584 50.1182 9.564C49.5515 8.52133 48.7808 7.71667 47.8062 7.15C46.8315 6.58333 45.7435 6.3 44.5422 6.3C43.3408 6.3 42.2528 6.58333 41.2782 7.15C40.3035 7.71667 39.5328 8.52133 38.9662 9.564C38.3995 10.584 38.1162 11.7627 38.1162 13.1C38.1162 14.4373 38.3995 15.6273 38.9662 16.67C39.5328 17.69 40.3035 18.4833 41.2782 19.05C42.2528 19.6167 43.3408 19.9 44.5422 19.9ZM66.0541 1.2H77.3081C79.9147 1.2 82.2267 1.68733 84.2441 2.662C86.2614 3.63667 87.8254 5.01933 88.9361 6.81C90.0467 8.60067 90.6021 10.6973 90.6021 13.1C90.6021 15.5027 90.0467 17.5993 88.9361 19.39C87.8254 21.1807 86.2614 22.5633 84.2441 23.538C82.2267 24.5127 79.9147 25 77.3081 25H66.0541V1.2ZM77.0361 19.628C79.0761 19.628 80.7081 19.05 81.9321 17.894C83.1787 16.738 83.8021 15.14 83.8021 13.1C83.8021 11.06 83.1787 9.462 81.9321 8.306C80.7081 7.15 79.0761 6.572 77.0361 6.572H72.7861V19.628H77.0361ZM0.398204 38.2H7.1302V56.662H18.4862V62H0.398204V38.2ZM25.9102 38.2H32.6422V62H25.9102V38.2ZM51.3716 53.364L48.8556 56.05V62H42.1916V38.2H48.8556V48.094L58.0696 38.2H65.4816L55.7576 48.74L65.9916 62H58.1716L51.3716 53.364ZM91.626 56.798V62H72.518V38.2H91.184V43.402H79.182V47.414H89.756V52.446H79.182V56.798H91.626Z" fill="white"/>
</svg>
