<svg width="88" height="90" viewBox="0 0 88 90" fill="none" xmlns="http://www.w3.org/2000/svg">
<path d="M0 10.6687C0.755287 32.1405 3.25483 41.9796 10.45 56.6261C13.7645 58.8413 15.5902 59.7489 18.7 59.9088C9.6173 43.7812 5.87356 34.1143 5.5 13.9513C28.6 2.46201 58.3 1.91489 83.05 13.9513V17.7811L88 21.6109V10.6687C55 -3.55624 33 -3.55621 0 10.6687Z" fill="white"/>
<path d="M44 90C31.35 82.3404 23.65 75.228 14.3 63.7386C31.35 73.0395 53.9 55.5319 36.85 35.8359C53.9 48.4195 52.8 70.304 44 90Z" fill="white"/>
<path fill-rule="evenodd" clip-rule="evenodd" d="M31.35 20.5167C22 21.6109 18.7 27.6292 17.6 33.6474C26.95 23.2523 44.6262 33.6474 50.6 46.231C57.3415 60.4317 57.5708 68.9764 52.8 85.076C65.4791 74.4865 71.9099 67.9833 79.75 53.3435C76.1637 44.1421 73.4706 39.2071 65.45 31.459C73.5379 34.1964 77.3125 37.3632 83.05 45.1368L87.45 25.9878C81.2346 20.942 77.6226 18.154 67.1 14.4985L71.5 13.9513C50.05 7.38602 37.4 11.7629 31.35 20.5167ZM41.8 21.6109C40.7 21.6109 39.6 21.6109 38.5 20.5167C41.25 19.696 42.9 20.5167 48.95 19.4225C45.2694 20.0882 43.45 21.6109 41.8 21.6109Z" fill="white"/>
</svg>
