<svg width="61" height="90" viewBox="0 0 61 90" fill="none" xmlns="http://www.w3.org/2000/svg">
<path fill-rule="evenodd" clip-rule="evenodd" d="M29.6974 0C25.6977 3.97079 23.9786 6 23.6776 12C23.535 14.8425 24.2538 17.483 24.9517 20.0472C26.218 24.6995 27.4159 29.1004 23.2763 34C22.9076 29.9574 21.3533 27.8563 19.8582 25.8354C18.0987 23.4572 16.4214 21.1899 16.8553 16C14.4745 19.4814 13.6448 21.5316 13.6447 25.2C13.6447 28.77 15.2298 31.6158 16.7389 34.3251C18.9496 38.2941 20.997 41.97 17.6579 47.2C17.6579 44.0189 15.1987 42.0633 12.5812 39.9818C9.60355 37.614 6.42105 35.0832 6.42105 30.4C3.54509 34.5983 2.00374 36.9938 1.20395 42.4C10.2359 45.3612 16.0526 51.6 22.4737 60.4C14.508 53.6235 10.0198 49.9323 1.20395 47.2C0.349141 49.2899 0.00681684 50.495 0 52.8C10.0329 54 16.6692 58.2458 26.0855 68C16.8553 68.4 8.02632 64 8.02632 57.6C4.81579 54.8 2.80921 54.4 0 54.4C8.42763 58 6.42105 65.2 1.60526 68.4C3.91892 72.2841 5.4357 74.2772 8.42763 77.6C9.69437 77.1059 11.062 76.3664 12.3554 75.6669C14.7426 74.376 16.877 73.2217 17.6579 74C18.699 75.0377 17.5665 77.1906 16.2999 79.5984C15.6136 80.9031 14.888 82.2825 14.4474 83.6L18.4605 86.4L22.4737 80.8L20.8684 87.6L23.2763 88.8L26.0855 84.8V90H28.4934L30.5 81.2L32.1053 90H34.5132L34.9145 84.4L37.3224 88.8L39.7303 87.6L38.125 80.4L42.5395 86.4L46.1513 83.6C45.7048 82.4131 45.0985 81.1759 44.5166 79.9885C43.2605 77.4251 42.118 75.0935 42.9408 74C43.7035 72.9864 45.6945 74.1375 48.0077 75.4748C49.3461 76.2486 50.7924 77.0847 52.1711 77.6L59.3947 68.4C52.1711 63.6 55.3816 56 60.1974 54.4C57.2406 54.6337 55.5952 54.8474 52.9737 57.2C52.9737 64.8 44.9474 67.6 34.9145 68.4C43.7434 59.2 50.9671 53.2 61 53.2C60.9248 50.825 60.7309 49.5149 60.1974 47.2C51.739 49.6491 46.9891 52.8379 38.5263 60.4L38.5698 60.3453C45.8028 51.244 49.8717 46.1242 59.3947 42.4C59.1404 37.1902 57.9111 34.6191 54.5789 30.4C54.5789 32.245 52.8855 33.3163 50.83 34.6167C47.9834 36.4176 44.4425 38.6577 43.7434 44C40.7416 39.3969 43.1871 35.9856 45.6523 32.5471C47.4715 30.0096 49.3013 27.4572 48.9605 24.4C48.5284 20.5239 46.8333 18.0086 44.1447 15.2C43.7166 24.9474 42.7393 29.3075 37.3224 31.6C39.2303 25.1343 36.6029 21.5618 33.7957 17.7446C30.6982 13.5326 27.3816 9.02285 29.6974 0ZM30.2742 71.3875C27.9679 73.301 26.0855 74.8629 26.0855 76.8C26.0855 78.9666 27.1893 78.5661 28.525 78.0815C29.1621 77.8503 29.852 77.6 30.5 77.6C31.148 77.6 31.8379 77.8503 32.475 78.0815C33.8107 78.5661 34.9145 78.9666 34.9145 76.8C34.9145 74.8629 33.0321 73.301 30.7258 71.3875C30.651 71.3253 30.5757 71.2629 30.5 71.2C30.4243 71.2629 30.349 71.3253 30.2742 71.3875Z" fill="white"/>
</svg>
